<svg xmlns="http://www.w3.org/2000/svg" style="display: none;">
  <!-- 特徴セクション用アイコン -->
  <symbol id="icon-matching" viewBox="0 0 64 64">
    <circle cx="32" cy="32" r="28" fill="none" stroke="currentColor" stroke-width="3"/>
    <circle cx="20" cy="24" r="4" fill="currentColor"/>
    <circle cx="44" cy="24" r="4" fill="currentColor"/>
    <path d="M 20 32 Q 32 40 44 32" fill="none" stroke="currentColor" stroke-width="3" stroke-linecap="round"/>
  </symbol>
  
  <symbol id="icon-chat" viewBox="0 0 64 64">
    <rect x="8" y="12" width="40" height="32" rx="4" fill="none" stroke="currentColor" stroke-width="3"/>
    <path d="M 8 28 L 16 20 L 24 28" fill="none" stroke="currentColor" stroke-width="3" stroke-linecap="round" stroke-linejoin="round"/>
    <circle cx="20" cy="36" r="2" fill="currentColor"/>
    <circle cx="28" cy="36" r="2" fill="currentColor"/>
    <circle cx="36" cy="36" r="2" fill="currentColor"/>
  </symbol>
  
  <symbol id="icon-report" viewBox="0 0 64 64">
    <rect x="12" y="8" width="32" height="44" rx="2" fill="none" stroke="currentColor" stroke-width="3"/>
    <line x1="20" y1="20" x2="36" y2="20" stroke="currentColor" stroke-width="3" stroke-linecap="round"/>
    <line x1="20" y1="28" x2="36" y2="28" stroke="currentColor" stroke-width="3" stroke-linecap="round"/>
    <line x1="20" y1="36" x2="28" y2="36" stroke="currentColor" stroke-width="3" stroke-linecap="round"/>
    <path d="M 20 44 L 24 48 L 36 36" fill="none" stroke="currentColor" stroke-width="3" stroke-linecap="round" stroke-linejoin="round"/>
  </symbol>
  
  <symbol id="icon-shield" viewBox="0 0 64 64">
    <path d="M 32 8 L 16 14 L 16 28 C 16 40 24 50 32 56 C 40 50 48 40 48 28 L 48 14 Z" fill="none" stroke="currentColor" stroke-width="3" stroke-linejoin="round"/>
    <path d="M 24 32 L 30 38 L 40 24" fill="none" stroke="currentColor" stroke-width="3" stroke-linecap="round" stroke-linejoin="round"/>
  </symbol>
  
  <!-- 使い方セクション用イラスト -->
  <symbol id="illustration-register" viewBox="0 0 120 120">
    <circle cx="60" cy="40" r="20" fill="none" stroke="currentColor" stroke-width="3"/>
    <path d="M 30 80 Q 30 60 60 60 Q 90 60 90 80" fill="none" stroke="currentColor" stroke-width="3" stroke-linecap="round"/>
    <rect x="100" y="20" width="16" height="24" rx="2" fill="none" stroke="currentColor" stroke-width="2"/>
    <line x1="108" y1="28" x2="108" y2="32" stroke="currentColor" stroke-width="2" stroke-linecap="round"/>
    <line x1="104" y1="36" x2="112" y2="36" stroke="currentColor" stroke-width="2" stroke-linecap="round"/>
  </symbol>
  
  <symbol id="illustration-request" viewBox="0 0 120 120">
    <rect x="20" y="30" width="60" height="50" rx="4" fill="none" stroke="currentColor" stroke-width="3"/>
    <line x1="30" y1="45" x2="70" y2="45" stroke="currentColor" stroke-width="2" stroke-linecap="round"/>
    <line x1="30" y1="55" x2="60" y2="55" stroke="currentColor" stroke-width="2" stroke-linecap="round"/>
    <line x1="30" y1="65" x2="50" y2="65" stroke="currentColor" stroke-width="2" stroke-linecap="round"/>
    <circle cx="75" cy="40" r="8" fill="currentColor"/>
    <path d="M 75 40 L 85 30" stroke="currentColor" stroke-width="2" stroke-linecap="round"/>
  </symbol>
  
  <symbol id="illustration-matching" viewBox="0 0 120 120">
    <circle cx="40" cy="50" r="18" fill="none" stroke="currentColor" stroke-width="3"/>
    <circle cx="40" cy="50" r="12" fill="currentColor" opacity="0.3"/>
    <circle cx="80" cy="50" r="18" fill="none" stroke="currentColor" stroke-width="3"/>
    <circle cx="80" cy="50" r="12" fill="currentColor" opacity="0.3"/>
    <path d="M 58 50 L 62 50" stroke="currentColor" stroke-width="3" stroke-linecap="round"/>
    <path d="M 60 48 L 62 50 L 60 52" fill="none" stroke="currentColor" stroke-width="3" stroke-linecap="round" stroke-linejoin="round"/>
  </symbol>
  
  <symbol id="illustration-activity" viewBox="0 0 120 120">
    <circle cx="60" cy="60" r="30" fill="none" stroke="currentColor" stroke-width="3"/>
    <path d="M 60 40 L 60 60 L 75 60" fill="none" stroke="currentColor" stroke-width="3" stroke-linecap="round" stroke-linejoin="round"/>
    <circle cx="30" cy="90" r="8" fill="currentColor"/>
    <circle cx="90" cy="90" r="8" fill="currentColor"/>
    <path d="M 30 90 Q 45 85 60 85 Q 75 85 90 90" fill="none" stroke="currentColor" stroke-width="2" stroke-linecap="round"/>
  </symbol>
</svg>

